C:\Users\r0593348\3dpredictsim\Results\batch_windlass\Pog_s1_tmt_bCst_d05_k1500_WL20_ig24_act_TTC_GRF.mot
nRows=10
nColumns=19

name C:\Users\r0593348\3dpredictsim\Results\batch_windlass\Pog_s1_tmt_bCst_d05_k1500_WL20_ig24_act_TTC_GRF.mot
datacolumns 19
datarows 10
range 0.5896164783 0.6957474444
endheader
time 	ground_force_vx	ground_force_vy	ground_force_vz	ground_force_px	ground_force_py	ground_force_pz	1_ground_force_vx	1_ground_force_vy	1_ground_force_vz	1_ground_force_px	1_ground_force_py	1_ground_force_pz	ground_torque_x	ground_torque_y	ground_torque_z	1_ground_torque_x	1_ground_torque_y	1_ground_torque_z
        0.5896164783	      102.8942500822	      412.5662781318	       -1.0863625700	        0.3813792798	        0.0000000000	        0.0369605878	      -33.4688781182	       20.5421627332	       -3.7494292438	        0.8781832471	        0.0000000000	       -0.0609673882	        0.0000000000	        0.0000000000	        0.0000000000	        0.0000000000	        0.0000000000	        0.0000000000	
        0.6014088079	       69.2275364764	      310.9175450098	        2.8831933898	        0.3896359504	        0.0000000000	        0.0335546817	      -67.2670156830	       46.5282682147	       -8.9142623540	        0.8956488675	        0.0000000000	       -0.0591940988	        0.0000000000	        0.0000000000	        0.0000000000	        0.0000000000	        0.0000000000	        0.0000000000	
        0.6132011375	       40.3393629787	      215.6718588251	        9.9227837189	        0.4012247154	        0.0000000000	        0.0284370577	     -136.1248335499	      114.1366114649	      -21.2551352279	        0.9095087904	        0.0000000000	       -0.0580498600	        0.0000000000	        0.0000000000	        0.0000000000	        0.0000000000	        0.0000000000	        0.0000000000	
        0.6249934670	       25.5374330478	      167.5222991568	       17.4447606455	        0.4033540837	        0.0000000000	        0.0276921884	     -137.5619204347	      297.2419305338	      -22.8724566439	        0.9278509935	        0.0000000000	       -0.0593707592	        0.0000000000	        0.0000000000	        0.0000000000	        0.0000000000	        0.0000000000	        0.0000000000	
        0.6367857966	       16.1237630466	      113.0904452079	       16.5893982409	        0.4034242063	        0.0000000000	        0.0278387298	     -102.1221721058	      651.2793683514	       13.5795035250	        0.9389535416	        0.0000000000	       -0.0606389645	        0.0000000000	        0.0000000000	        0.0000000000	        0.0000000000	        0.0000000000	        0.0000000000	
        0.6485781262	       -1.0078758131	       47.5090927806	        9.5613028070	        0.4024170954	        0.0000000000	        0.0278893803	     -126.6698050192	      901.8962578883	       29.9092887525	        0.9479628514	        0.0000000000	       -0.0609925191	        0.0000000000	        0.0000000000	        0.0000000000	        0.0000000000	        0.0000000000	        0.0000000000	
        0.6603704557	        0.5358567398	       -0.5648316409	       -0.0265774185	        0.0000000000	        0.0000000000	        0.0000000000	     -164.1876760012	     1018.0794885207	       28.8737173478	        0.9598484942	        0.0000000000	       -0.0600852053	        0.0000000000	        0.0000000000	        0.0000000000	        0.0000000000	        0.0000000000	        0.0000000000	
        0.6721627853	        0.0012507193	       -0.0011619717	       -0.0000082526	        0.0000000000	        0.0000000000	        0.0000000000	     -157.8421390130	      985.1009461495	       24.3861754005	        0.9685977579	        0.0000000000	       -0.0588442698	        0.0000000000	        0.0000000000	        0.0000000000	        0.0000000000	        0.0000000000	        0.0000000000	
        0.6839551149	        0.0000234481	       -0.0000198143	       -0.0000002973	        0.0000000000	        0.0000000000	        0.0000000000	     -131.3583729872	      877.8846733814	       20.4301987504	        0.9728166651	        0.0000000000	       -0.0581234923	        0.0000000000	        0.0000000000	        0.0000000000	        0.0000000000	        0.0000000000	        0.0000000000	
        0.6957474444	        0.0000024544	       -0.0000019279	       -0.0000000545	        0.0000000000	        0.0000000000	        0.0000000000	     -109.2776165652	      791.1110908333	       18.4997844763	        0.9763741670	        0.0000000000	       -0.0576987594	        0.0000000000	        0.0000000000	        0.0000000000	        0.0000000000	        0.0000000000	        0.0000000000	
